<?xml version="1.0" standalone="no"?>
<!DOCTYPE svg PUBLIC "-//W3C//DTD SVG 20010904//EN"
 "http://www.w3.org/TR/2001/REC-SVG-20010904/DTD/svg10.dtd">
<svg version="1.0" xmlns="http://www.w3.org/2000/svg"
 width="2312.000000pt" height="2312.000000pt" viewBox="0 0 2312.000000 2312.000000"
 preserveAspectRatio="xMidYMid meet">
<metadata>
Created by potrace 1.14, written by Peter Selinger 2001-2017
</metadata>
<g transform="translate(0.000000,2312.000000) scale(0.100000,-0.100000)"
fill="#000000" stroke="none">
<path d="M3779 15556 c-2 -2 -49 -7 -104 -11 -55 -3 -111 -8 -125 -10 -40 -5
-113 -15 -140 -19 -14 -3 -41 -7 -60 -10 -97 -15 -123 -19 -220 -42 -58 -14
-114 -27 -125 -29 -11 -2 -20 -4 -20 -5 0 -1 -7 -3 -15 -5 -8 -2 -24 -6 -35
-9 -34 -8 -177 -53 -240 -76 -33 -11 -64 -22 -70 -24 -5 -2 -19 -7 -30 -11
-11 -4 -51 -21 -90 -36 -38 -15 -88 -35 -110 -45 -22 -10 -43 -18 -47 -18 -4
-1 -13 -7 -19 -13 -7 -7 -17 -13 -23 -13 -10 0 -177 -81 -186 -90 -3 -3 -27
-16 -55 -30 -27 -14 -52 -28 -55 -31 -3 -3 -21 -14 -40 -24 -46 -24 -315 -202
-346 -229 -13 -12 -48 -39 -79 -60 -30 -22 -55 -43 -55 -48 0 -4 -4 -8 -9 -8
-9 0 -66 -47 -118 -97 -13 -13 -26 -23 -29 -23 -9 0 -286 -281 -344 -349 -30
-35 -59 -69 -65 -75 -31 -35 -94 -115 -111 -141 -10 -16 -24 -34 -30 -40 -18
-15 -164 -235 -164 -246 0 -5 -4 -9 -10 -9 -5 0 -10 -7 -10 -15 0 -8 -4 -15
-10 -15 -5 0 -10 -4 -10 -9 0 -5 -21 -45 -46 -88 -58 -97 -174 -325 -174 -341
0 -7 -5 -12 -12 -12 -6 0 -9 -3 -6 -6 3 -3 -10 -42 -29 -87 -49 -117 -50 -118
-64 -157 -8 -19 -14 -37 -14 -40 0 -3 -3 -9 -6 -15 -4 -5 -9 -22 -13 -37 -3
-15 -11 -40 -18 -55 -6 -15 -12 -34 -14 -42 -1 -8 -10 -36 -18 -62 -17 -52
-72 -264 -80 -314 -3 -16 -8 -41 -11 -55 -4 -14 -8 -39 -10 -57 -2 -18 -6 -40
-9 -50 -3 -10 -7 -34 -10 -53 -2 -19 -7 -51 -10 -70 -4 -19 -9 -60 -11 -90 -2
-30 -5 -55 -5 -55 -7 0 -14 -201 -14 -400 0 -241 9 -403 28 -520 4 -22 8 -53
10 -70 3 -16 7 -43 10 -60 3 -16 8 -46 11 -65 11 -72 76 -343 102 -425 16 -51
51 -158 61 -185 3 -8 6 -19 7 -25 5 -20 84 -211 117 -285 19 -41 41 -90 49
-107 7 -18 17 -33 21 -33 5 0 8 -6 8 -14 0 -8 27 -63 60 -122 33 -59 60 -111
60 -116 0 -4 5 -8 10 -8 6 0 10 -5 10 -11 0 -15 196 -309 240 -360 20 -24 33
-40 50 -65 8 -12 35 -45 60 -75 168 -199 398 -424 595 -582 101 -80 280 -208
315 -224 8 -3 17 -9 20 -12 7 -8 88 -61 94 -61 2 0 33 -17 67 -38 89 -54 260
-142 275 -142 7 0 14 -3 16 -8 3 -8 185 -87 294 -127 80 -30 87 -32 94 -33 3
0 23 -7 45 -16 44 -17 275 -85 315 -92 14 -3 41 -9 60 -14 19 -5 46 -11 60
-14 14 -2 36 -7 50 -10 14 -3 42 -8 64 -11 21 -3 41 -7 45 -9 3 -2 30 -7 60
-10 29 -4 83 -10 120 -15 36 -5 73 -9 81 -10 8 0 49 -4 90 -8 134 -13 720 -8
720 7 0 3 15 5 33 6 42 1 129 12 197 24 30 6 69 12 85 14 17 1 39 6 50 9 11 3
36 9 55 12 19 3 80 18 135 32 55 14 105 26 110 27 6 2 30 9 55 16 25 8 47 14
50 15 60 16 229 75 275 96 18 8 73 30 85 34 37 13 149 64 270 125 98 49 118
60 230 125 73 43 291 187 331 219 14 12 36 28 49 36 12 8 39 30 59 47 42 38
50 39 79 16 12 -10 43 -34 69 -53 27 -19 50 -38 53 -41 11 -13 279 -189 289
-189 5 0 11 -4 13 -8 4 -10 146 -92 159 -92 5 0 9 -5 9 -10 0 -6 3 -9 8 -8 4
1 72 -30 152 -69 180 -88 176 -87 365 -159 11 -4 23 -8 28 -9 4 -2 9 -4 12 -5
3 -1 8 -3 13 -5 4 -1 14 -4 22 -8 61 -25 395 -118 475 -132 17 -2 41 -7 55
-11 14 -3 39 -7 55 -9 17 -2 30 -4 30 -5 0 -1 15 -3 34 -6 19 -2 46 -7 60 -9
14 -3 46 -8 71 -11 25 -3 59 -7 75 -9 177 -26 766 -26 887 -1 13 3 46 7 73 10
28 3 59 8 70 10 11 2 45 7 75 11 67 9 86 12 110 20 10 3 31 8 46 10 37 5 50 8
154 35 47 12 92 23 100 25 16 4 137 42 235 74 59 19 200 72 240 91 151 69 216
99 218 98 1 -1 22 10 47 24 25 14 77 42 115 63 39 21 82 46 97 56 14 11 30 19
35 19 5 0 18 7 28 15 11 8 63 44 117 79 96 64 151 102 175 121 7 6 23 18 35
27 13 10 40 31 62 48 21 16 43 30 47 30 5 0 48 -31 97 -69 297 -233 705 -455
1091 -593 31 -11 63 -21 71 -23 8 -1 26 -7 40 -13 59 -24 356 -102 445 -117
45 -8 136 -23 175 -30 19 -3 55 -8 80 -11 25 -3 59 -7 75 -10 80 -12 231 -18
440 -19 206 0 427 9 444 19 3 2 40 7 81 11 114 12 125 13 125 15 0 2 25 7 75
14 25 4 54 10 65 13 11 3 29 7 40 9 26 4 51 9 100 23 22 6 51 12 65 15 14 2
25 5 25 6 0 1 7 3 16 5 54 10 341 105 434 142 113 46 291 127 351 159 135 73
249 139 252 146 2 4 8 8 13 8 15 0 195 120 314 210 61 45 115 84 122 87 6 2
51 -27 100 -65 92 -73 331 -234 396 -267 20 -11 37 -24 37 -29 0 -5 3 -6 6 -3
4 4 19 -2 34 -13 16 -11 33 -20 39 -20 6 0 11 -5 11 -12 0 -6 3 -9 6 -5 3 3
27 -7 52 -21 44 -25 154 -78 285 -136 32 -14 64 -26 72 -26 8 0 15 -4 15 -10
0 -5 10 -10 23 -10 13 0 27 -4 32 -9 28 -25 493 -161 640 -186 22 -4 49 -9 60
-11 11 -2 36 -6 55 -8 19 -3 51 -8 70 -11 75 -13 137 -20 280 -33 159 -14 634
-7 750 12 14 2 48 7 75 10 76 10 112 15 205 33 47 8 94 17 105 19 28 4 47 9
145 34 47 12 92 23 100 25 64 15 341 109 415 141 22 10 42 18 45 19 44 13 304
138 400 192 117 66 168 97 232 141 26 17 50 32 53 32 4 0 26 15 49 32 24 18
54 40 66 48 13 8 38 27 55 43 18 15 37 27 42 27 5 0 15 9 23 20 8 11 20 20 27
20 7 0 13 3 13 8 0 4 25 27 55 50 141 110 402 369 523 520 19 22 41 50 50 61
10 11 28 34 42 52 14 18 31 38 38 45 6 7 12 16 12 19 0 4 16 26 35 49 19 24
35 48 35 54 0 6 4 12 9 14 7 2 50 65 96 139 97 158 121 202 200 359 83 165
201 454 220 535 1 6 5 17 8 25 8 21 28 89 31 103 2 7 8 32 15 57 7 25 15 54
18 65 8 38 11 50 13 50 1 0 3 7 5 15 1 8 13 64 25 124 12 60 23 119 25 130 5
29 15 103 21 151 3 22 7 51 9 65 19 105 27 648 11 780 -4 36 -7 72 -8 80 0 8
-5 49 -10 90 -5 41 -11 93 -14 115 -3 22 -7 47 -10 55 -3 8 -8 31 -10 50 -3
19 -7 46 -10 60 -3 14 -8 36 -10 50 -2 14 -14 67 -28 118 -13 50 -22 92 -19
92 3 0 1 6 -4 13 -6 6 -16 37 -23 67 -7 30 -19 70 -27 87 -7 18 -13 34 -12 35
0 4 -10 37 -21 63 -4 11 -21 56 -36 100 -15 44 -34 91 -41 105 -7 14 -13 28
-13 33 0 15 -126 275 -182 376 -32 58 -58 108 -58 113 0 4 -4 8 -8 8 -5 0 -14
12 -21 26 -30 68 -251 381 -336 478 -5 6 -39 45 -75 86 -95 111 -409 420 -426
420 -3 0 -15 10 -28 23 -22 21 -46 40 -131 106 -22 17 -44 34 -50 39 -5 4 -39
28 -75 52 -36 25 -66 48 -68 53 -2 4 -7 7 -12 7 -5 0 -41 22 -82 48 -40 27
-80 52 -88 55 -8 4 -28 16 -45 26 -16 11 -61 36 -100 56 -38 21 -74 41 -80 46
-5 5 -17 9 -26 9 -10 0 -19 3 -21 8 -8 19 -444 204 -510 216 -14 2 -35 9 -46
15 -11 6 -37 15 -58 20 -22 5 -99 26 -173 45 -74 19 -151 38 -170 42 -20 3
-45 8 -56 9 -11 2 -31 6 -45 10 -14 3 -41 7 -60 10 -19 3 -46 7 -60 9 -29 6
-168 23 -190 25 -8 0 -55 4 -105 8 -168 15 -654 7 -750 -11 -11 -2 -45 -7 -76
-10 -31 -4 -67 -9 -80 -12 -13 -2 -44 -7 -68 -10 -24 -2 -46 -6 -50 -8 -4 -3
-25 -7 -47 -10 -45 -7 -54 -9 -144 -31 -36 -9 -72 -18 -80 -20 -53 -11 -149
-39 -240 -70 -58 -19 -109 -37 -115 -39 -25 -8 -56 -20 -135 -52 -47 -20 -89
-36 -95 -38 -57 -14 -485 -238 -493 -258 -2 -4 -8 -8 -13 -8 -11 0 -160 -96
-244 -158 -33 -24 -71 -51 -84 -60 -12 -9 -39 -32 -60 -49 -41 -37 -49 -39
-76 -18 -145 112 -360 261 -425 295 -14 7 -27 16 -30 19 -24 29 -431 227 -590
288 -36 13 -73 29 -82 34 -10 5 -27 9 -37 9 -11 0 -22 4 -25 9 -3 5 -27 14
-53 21 -52 14 -51 14 -73 22 -24 9 -199 58 -227 64 -6 1 -53 11 -105 22 -109
24 -141 30 -188 37 -19 3 -46 8 -60 10 -14 3 -50 7 -80 11 -30 3 -66 7 -80 10
-151 26 -673 26 -890 -1 -40 -5 -113 -15 -140 -19 -14 -3 -43 -7 -65 -11 -116
-17 -118 -18 -230 -45 -49 -12 -97 -23 -105 -25 -70 -15 -326 -94 -385 -119
-16 -7 -68 -28 -115 -46 -47 -18 -123 -50 -168 -71 -46 -22 -88 -39 -93 -39
-5 0 -9 -5 -9 -12 0 -6 -3 -9 -6 -5 -3 3 -32 -8 -63 -25 -260 -144 -422 -248
-591 -377 -88 -67 -114 -81 -122 -63 -8 19 -270 206 -388 278 -36 21 -67 41
-70 44 -14 14 -253 139 -355 186 -127 59 -151 69 -230 99 -38 15 -78 31 -87
36 -10 5 -26 9 -36 9 -10 0 -22 4 -28 9 -7 7 -74 30 -169 57 -5 2 -73 19 -150
39 -196 49 -236 57 -335 71 -25 3 -54 8 -65 10 -11 3 -40 7 -65 10 -25 3 -58
7 -75 10 -121 18 -631 25 -780 11 -139 -13 -173 -17 -235 -27 -95 -15 -115
-18 -115 -20 0 -1 -9 -3 -20 -4 -11 -1 -38 -6 -60 -11 -22 -4 -49 -9 -60 -11
-28 -4 -53 -10 -105 -24 -25 -7 -52 -13 -60 -15 -49 -10 -150 -40 -255 -75
-66 -23 -124 -42 -130 -44 -10 -3 -45 -16 -100 -39 -16 -6 -32 -12 -35 -12 -3
-1 -20 -9 -37 -18 -18 -10 -33 -16 -33 -13 0 2 -68 -29 -151 -70 -82 -41 -154
-74 -160 -74 -5 0 -9 -4 -9 -9 0 -5 -17 -16 -37 -25 -58 -25 -277 -162 -369
-230 -23 -17 -55 -40 -70 -51 -15 -11 -51 -39 -80 -62 -59 -48 -62 -49 -89
-28 -11 9 -63 48 -115 86 -52 39 -102 76 -111 82 -19 14 -27 20 -154 98 -55
34 -111 69 -125 79 -26 18 -361 185 -415 207 -17 7 -62 26 -102 42 -91 37
-284 102 -388 130 -44 12 -87 25 -95 28 -8 3 -22 7 -30 8 -8 1 -58 11 -110 23
-84 19 -146 30 -245 46 -46 7 -108 15 -260 33 -49 5 -561 14 -566 9z m483
-901 c60 -4 113 -11 113 -15 0 -1 23 -3 50 -6 28 -2 57 -5 65 -7 8 -2 38 -7
65 -11 28 -4 57 -10 65 -13 8 -3 26 -8 40 -10 103 -17 371 -98 442 -134 10 -5
22 -9 28 -9 5 0 33 -11 62 -23 29 -13 58 -25 63 -26 39 -9 371 -193 446 -247
25 -19 49 -31 53 -27 3 3 6 2 6 -4 0 -6 19 -23 43 -38 69 -45 88 -65 74 -80
-7 -7 -18 -21 -25 -31 -36 -53 -135 -191 -147 -207 -8 -9 -15 -19 -15 -22 0
-2 -20 -36 -45 -74 -25 -38 -45 -74 -45 -80 0 -6 -4 -11 -9 -11 -5 0 -11 -8
-14 -17 -3 -10 -22 -47 -43 -83 -51 -91 -114 -217 -114 -229 0 -6 -4 -11 -10
-11 -5 0 -10 -7 -10 -15 0 -8 -4 -23 -9 -33 -17 -30 -48 -105 -81 -192 -18
-47 -36 -94 -41 -105 -25 -63 -104 -326 -112 -375 -3 -14 -10 -43 -15 -65 -6
-22 -14 -56 -17 -75 -3 -19 -8 -42 -10 -50 -4 -16 -9 -43 -22 -119 -4 -25 -8
-48 -8 -51 -11 -52 -34 -278 -38 -382 -1 -32 -6 -58 -10 -58 -5 0 -5 -6 0 -12
8 -14 5 -226 -3 -240 -3 -4 -2 -8 3 -8 4 0 9 -30 9 -68 2 -80 12 -237 18 -272
4 -23 15 -106 22 -170 2 -14 10 -63 19 -110 9 -47 18 -94 20 -105 2 -11 11
-49 20 -85 9 -36 18 -72 20 -80 8 -39 39 -152 53 -190 3 -8 7 -19 7 -25 1 -5
7 -23 13 -38 7 -16 12 -34 12 -41 0 -7 3 -16 7 -20 4 -3 8 -12 9 -19 3 -17 43
-124 53 -145 9 -18 18 -38 48 -112 32 -80 162 -338 208 -414 25 -40 45 -78 45
-84 0 -6 3 -12 8 -14 4 -1 23 -28 42 -58 19 -30 37 -57 41 -60 3 -3 14 -20 23
-37 9 -18 21 -33 26 -33 6 0 10 -5 10 -12 0 -11 66 -104 102 -143 18 -19 18
-20 -11 -45 -57 -49 -71 -60 -77 -60 -5 0 -66 -42 -74 -51 -5 -6 -29 -20 -188
-112 -96 -55 -298 -154 -352 -172 -3 -1 -16 -6 -30 -12 -90 -37 -309 -108
-396 -128 -94 -22 -276 -56 -317 -60 -29 -2 -52 -5 -52 -6 0 -14 -453 -30
-513 -18 -17 4 -35 3 -38 -2 -3 -5 -13 -5 -22 -1 -9 5 -45 9 -80 11 -34 1 -73
5 -85 7 -12 3 -33 7 -47 8 -108 14 -141 19 -180 28 -25 5 -54 12 -65 14 -69
15 -90 20 -160 39 -33 9 -67 18 -76 20 -8 2 -31 10 -50 17 -18 8 -37 16 -42
16 -26 5 -64 16 -72 21 -5 3 -12 6 -15 7 -7 1 -35 12 -139 56 -114 48 -265
123 -306 152 -16 11 -32 20 -35 20 -8 -2 -251 155 -298 192 -13 11 -41 33 -62
49 -111 88 -137 111 -240 210 -184 176 -319 341 -470 571 -64 98 -168 293
-230 433 -33 77 -137 363 -138 384 0 4 -7 31 -15 60 -14 47 -31 124 -43 185
-12 65 -15 80 -19 112 -3 19 -8 51 -12 70 -3 19 -8 53 -9 75 -1 22 -6 81 -10
130 -12 152 -7 455 10 555 3 14 7 50 11 80 3 30 12 93 21 140 20 106 20 107
33 155 5 22 14 57 19 78 6 20 8 37 5 37 -3 0 -1 6 4 13 6 6 16 35 23 62 7 28
17 56 23 63 5 6 7 12 4 12 -5 0 7 34 54 155 13 33 23 62 24 65 0 10 166 336
185 365 11 17 23 37 27 45 7 16 95 152 103 160 3 3 17 23 32 45 15 22 38 52
50 67 13 14 32 38 42 52 11 15 29 37 40 50 12 13 34 39 49 57 36 43 203 214
248 254 93 84 182 155 279 225 30 22 60 43 65 48 6 4 28 19 50 32 22 13 42 26
45 29 3 4 25 17 50 30 25 13 52 30 61 37 8 8 18 14 21 14 3 0 34 16 68 35 34
19 68 35 76 35 8 0 14 5 14 10 0 6 5 10 11 10 6 0 44 15 83 34 40 18 83 37 97
41 13 4 29 11 34 15 10 7 213 78 245 85 8 2 68 17 133 34 116 30 158 40 207
46 14 2 36 6 50 9 14 3 45 8 70 10 25 3 56 8 70 11 14 3 74 8 135 11 60 3 111
7 112 8 3 3 306 -4 375 -9z m5013 0 c109 -9 147 -13 185 -19 20 -4 52 -8 70
-10 19 -2 42 -6 50 -9 8 -3 31 -8 50 -11 19 -3 46 -8 60 -11 14 -3 34 -7 45
-9 149 -29 558 -171 600 -208 5 -4 17 -8 26 -8 10 0 19 -3 21 -7 2 -5 30 -21
63 -37 129 -63 314 -177 427 -263 l58 -44 -59 -77 c-75 -99 -201 -288 -201
-302 0 -5 -4 -10 -10 -10 -5 0 -12 -11 -16 -25 -3 -14 -10 -25 -14 -25 -4 0
-10 -8 -14 -17 -3 -10 -28 -58 -55 -108 -99 -179 -213 -435 -251 -560 -6 -22
-15 -49 -20 -60 -10 -23 -44 -130 -61 -195 -7 -25 -14 -49 -15 -55 -10 -37
-45 -180 -49 -203 -3 -15 -7 -38 -10 -52 -12 -62 -18 -97 -21 -120 -1 -14 -3
-26 -4 -27 -5 -6 -20 -121 -26 -193 -1 -19 -3 -35 -4 -35 -3 0 -10 -117 -13
-212 -1 -51 -4 -93 -7 -93 -5 0 -5 -20 1 -115 1 -22 1 -44 -1 -50 -1 -5 -2
-12 0 -15 1 -3 3 -41 5 -85 5 -122 14 -239 25 -313 5 -37 12 -85 14 -107 3
-22 8 -51 11 -65 3 -14 8 -45 11 -70 3 -25 10 -53 15 -62 6 -10 8 -18 5 -18
-4 0 21 -114 53 -240 7 -25 16 -56 21 -70 5 -14 19 -59 31 -100 12 -41 26 -79
31 -85 4 -5 8 -18 8 -30 0 -12 4 -25 8 -30 5 -6 19 -38 31 -72 12 -34 31 -84
43 -110 12 -26 21 -50 21 -53 1 -15 164 -330 217 -419 74 -126 186 -294 251
-378 l48 -62 -37 -29 c-47 -37 -229 -162 -235 -162 -3 0 -34 -17 -68 -38 -35
-21 -100 -56 -144 -78 -44 -21 -81 -42 -83 -46 -2 -5 -9 -8 -16 -8 -7 0 -44
-14 -82 -32 -103 -46 -328 -125 -411 -143 -12 -3 -34 -10 -48 -15 -14 -5 -25
-8 -25 -5 0 2 -15 -1 -32 -6 -60 -18 -266 -56 -353 -64 -182 -18 -441 -25
-493 -14 -17 4 -35 3 -38 -2 -3 -5 -10 -6 -16 -3 -6 4 -32 8 -57 10 -56 4
-145 13 -186 20 -16 2 -43 6 -60 8 -16 2 -37 6 -45 9 -8 3 -31 8 -50 10 -19 3
-57 10 -85 17 -27 6 -59 14 -70 16 -11 3 -24 6 -30 8 -5 2 -23 6 -40 10 -16 4
-36 9 -43 12 -7 2 -14 4 -17 4 -16 2 -276 96 -305 110 -19 10 -39 18 -45 19
-29 4 -324 158 -405 210 -69 45 -183 122 -217 147 l-42 31 64 89 c35 49 68 94
72 99 4 6 21 30 37 55 16 25 41 63 56 85 39 58 135 225 151 263 8 17 17 32 21
32 5 0 8 4 8 9 0 5 24 60 53 122 58 123 80 171 82 179 1 3 8 21 16 40 9 19 24
58 33 85 10 28 22 59 26 70 7 17 31 88 35 105 1 3 4 12 7 20 18 46 27 83 22
91 -3 5 0 9 7 9 7 0 10 3 7 6 -4 3 0 21 8 40 8 19 12 34 9 34 -2 0 0 11 5 25
5 14 12 36 14 48 2 12 11 51 20 87 8 36 17 76 19 90 3 14 10 53 17 88 6 35 13
75 15 90 1 15 6 43 9 62 4 19 9 62 12 95 2 33 7 83 10 110 5 54 16 260 14 285
0 8 0 26 1 40 2 58 -16 425 -21 425 -1 0 -3 14 -5 30 -10 80 -18 143 -22 170
-3 17 -6 39 -7 50 -2 11 -7 33 -11 49 -4 16 -9 41 -10 55 -1 14 -4 33 -7 41
-3 8 -13 51 -23 95 -10 44 -33 134 -52 200 -19 66 -36 125 -37 130 -2 6 -7 21
-13 35 -5 14 -18 50 -28 80 -11 30 -23 59 -27 64 -4 6 -8 16 -8 24 0 11 -9 35
-50 127 -5 11 -32 69 -59 129 -28 59 -51 112 -51 117 0 5 -4 9 -10 9 -5 0 -10
9 -10 20 0 11 -3 20 -8 20 -4 0 -14 15 -21 33 -8 17 -34 64 -58 103 -24 39
-43 76 -43 82 0 6 -3 12 -7 14 -5 2 -42 55 -83 118 -41 63 -83 122 -92 131
-10 9 -18 20 -18 25 0 5 -16 27 -35 49 l-35 40 23 20 c37 34 124 95 135 95 6
0 12 4 14 8 4 10 92 67 163 107 28 16 57 34 65 41 8 7 20 13 25 15 6 1 64 28
130 59 109 53 287 127 325 135 8 2 35 11 60 20 25 9 61 21 80 26 19 5 42 12
50 14 49 14 130 32 130 28 0 -2 8 1 18 6 10 5 36 12 58 15 22 4 51 9 64 11 45
9 74 14 125 21 28 3 58 8 69 10 10 2 73 6 140 10 66 3 122 7 123 8 5 4 259 -3
328 -9z m5065 0 c36 -3 79 -7 95 -10 17 -3 52 -8 80 -11 27 -3 92 -14 145 -25
52 -11 104 -22 115 -24 104 -19 343 -95 478 -151 172 -72 491 -241 539 -286 7
-7 25 -19 39 -26 14 -7 51 -34 82 -58 l56 -45 -47 -62 c-26 -34 -67 -91 -91
-127 -25 -36 -48 -67 -51 -70 -4 -3 -10 -12 -13 -20 -4 -8 -15 -27 -25 -42
-89 -138 -242 -420 -242 -447 0 -6 -4 -11 -10 -11 -5 0 -10 -7 -10 -15 0 -8
-4 -23 -10 -33 -5 -9 -23 -51 -40 -92 -17 -41 -35 -84 -40 -95 -5 -11 -19 -49
-30 -85 -12 -36 -26 -74 -30 -85 -20 -47 -83 -263 -95 -325 -2 -8 -8 -35 -15
-60 -7 -25 -14 -54 -15 -65 -2 -11 -11 -60 -20 -110 -9 -49 -18 -99 -19 -110
-2 -11 -6 -40 -9 -65 -19 -134 -30 -280 -31 -397 -1 -51 -4 -93 -8 -93 -4 0
-4 -10 1 -22 4 -12 5 -36 1 -54 -4 -18 -4 -38 0 -45 5 -7 4 -23 -1 -36 -5 -12
-5 -23 -1 -23 4 0 8 -24 8 -53 3 -108 16 -259 30 -349 3 -24 8 -54 10 -68 3
-24 6 -43 18 -120 3 -19 10 -53 15 -75 19 -80 42 -181 45 -196 1 -7 7 -30 13
-49 6 -19 21 -69 33 -110 25 -85 76 -235 91 -265 6 -12 11 -27 13 -35 1 -8 9
-31 18 -50 8 -19 28 -64 43 -100 38 -91 150 -311 202 -396 24 -39 43 -75 43
-78 0 -4 5 -12 10 -19 6 -7 36 -50 67 -97 30 -47 59 -86 64 -88 5 -2 9 -8 9
-14 0 -6 27 -47 60 -91 l60 -79 -89 -64 c-49 -35 -94 -64 -100 -64 -6 0 -11
-4 -11 -9 0 -5 -12 -16 -27 -24 -16 -8 -68 -38 -118 -67 -49 -29 -119 -67
-155 -84 -36 -17 -68 -35 -71 -39 -3 -5 -9 -8 -13 -8 -3 1 -21 -5 -39 -13 -17
-7 -59 -25 -93 -39 -82 -35 -221 -83 -329 -113 -87 -25 -103 -29 -152 -38 -13
-3 -27 -7 -32 -10 -5 -3 -26 -8 -47 -11 -22 -3 -50 -7 -64 -10 -55 -11 -85
-16 -129 -20 -25 -2 -46 -5 -46 -6 0 -8 -262 -22 -390 -22 -161 2 -360 14
-360 23 0 1 -20 3 -45 5 -25 2 -61 7 -80 11 -19 3 -44 8 -55 10 -53 9 -74 13
-120 24 -27 7 -59 14 -70 15 -36 6 -188 53 -300 93 -128 46 -359 146 -375 162
-3 3 -18 12 -35 20 -42 21 -168 93 -180 102 -5 5 -32 23 -60 40 -27 17 -83 56
-122 85 l-73 54 59 77 c129 170 285 424 373 607 24 50 48 93 53 97 6 4 6 8 2
8 -5 0 1 17 12 38 17 31 40 82 46 102 1 3 9 23 19 45 20 47 124 346 131 378 2
12 12 49 21 82 9 33 18 67 20 75 17 70 24 100 29 130 3 19 10 53 15 75 10 47
15 74 35 215 2 14 7 57 11 95 4 39 8 84 10 100 11 95 18 415 9 423 -2 2 0 15
5 28 5 13 6 24 2 24 -4 0 -8 28 -8 63 -2 67 -10 180 -18 237 -3 19 -8 55 -11
80 -3 25 -7 56 -10 70 -3 14 -7 43 -10 65 -2 22 -10 65 -16 95 -6 30 -13 64
-14 75 -1 11 -5 27 -8 35 -3 8 -15 56 -26 105 -12 50 -33 128 -47 174 -15 47
-27 89 -28 95 -1 6 -4 16 -7 21 -4 6 -16 42 -29 80 -12 39 -26 74 -31 79 -5 6
-9 15 -9 22 0 6 -7 28 -15 48 -8 20 -15 38 -15 41 1 3 -6 18 -14 33 -14 26
-88 181 -91 192 -5 19 -92 180 -141 261 -19 31 -34 60 -34 63 0 4 -5 12 -10
19 -6 7 -36 50 -67 97 -30 47 -59 87 -64 88 -5 2 -9 9 -9 14 0 10 -73 113 -89
128 -3 3 -11 14 -17 25 -9 17 -4 24 45 60 31 23 71 50 89 60 17 11 32 23 32
27 0 4 5 8 11 8 6 0 25 11 43 25 18 14 36 25 40 25 5 0 28 14 53 30 24 17 47
30 52 30 4 0 13 6 20 13 6 6 15 12 19 13 4 0 63 28 132 61 132 65 371 159 430
169 19 4 40 10 45 14 25 19 405 98 464 96 17 -1 31 1 31 5 0 3 10 5 23 6 44 1
252 15 254 17 4 3 288 -4 353 -9z m5000 1 c103 -7 161 -13 200 -21 14 -2 48
-7 75 -11 28 -3 90 -14 138 -25 48 -11 98 -21 110 -23 12 -3 22 -5 22 -6 0 -1
7 -3 15 -5 56 -14 137 -37 150 -42 8 -3 20 -7 25 -8 92 -22 487 -196 556 -246
14 -10 28 -16 31 -13 3 2 11 -2 18 -11 7 -8 16 -15 21 -15 12 0 183 -115 268
-179 40 -31 83 -63 95 -71 80 -56 295 -266 427 -417 78 -89 239 -313 239 -333
0 -5 4 -10 8 -10 5 0 15 -12 23 -27 8 -15 30 -55 50 -88 37 -62 131 -242 135
-260 2 -5 20 -50 42 -100 34 -77 85 -216 98 -265 48 -182 75 -286 79 -312 5
-31 16 -95 31 -183 4 -22 8 -58 9 -80 2 -22 6 -76 11 -120 19 -206 3 -538 -36
-750 -5 -27 -12 -63 -15 -80 -2 -16 -9 -45 -15 -64 -5 -19 -8 -37 -5 -39 3 -3
0 -11 -6 -19 -6 -7 -9 -13 -6 -13 3 0 -3 -25 -13 -55 -10 -30 -17 -55 -15 -55
2 0 -12 -45 -31 -100 -18 -55 -34 -107 -34 -115 0 -8 -4 -15 -10 -15 -5 0 -9
-3 -8 -7 4 -16 -10 -52 -81 -206 -23 -49 -41 -93 -41 -98 0 -5 -5 -9 -11 -9
-5 0 -8 -4 -4 -9 3 -5 -1 -15 -8 -23 -7 -7 -21 -29 -30 -48 -10 -19 -29 -53
-42 -75 -13 -22 -27 -47 -31 -55 -23 -48 -204 -301 -280 -390 -121 -142 -314
-329 -429 -417 -27 -21 -54 -44 -58 -50 -4 -7 -13 -13 -18 -13 -6 0 -17 -6
-24 -14 -8 -7 -53 -40 -102 -72 -48 -32 -89 -62 -91 -66 -2 -5 -7 -8 -12 -8
-5 0 -44 -21 -87 -46 -143 -85 -455 -229 -467 -216 -3 3 -6 -1 -6 -8 0 -7 -3
-11 -6 -8 -3 4 -22 -1 -42 -9 -40 -17 -251 -81 -292 -88 -14 -3 -34 -7 -45
-10 -95 -23 -269 -53 -345 -61 -210 -19 -650 -22 -650 -4 0 3 -15 5 -32 5 -18
-1 -49 2 -68 6 -19 4 -55 9 -80 12 -25 3 -90 15 -145 27 -55 12 -109 23 -120
25 -11 2 -21 4 -22 5 -2 2 -6 3 -10 5 -5 1 -20 5 -34 9 -14 4 -32 9 -40 10 -8
2 -21 5 -29 8 -8 3 -33 11 -55 18 -42 13 -212 75 -255 93 -14 6 -27 11 -30 11
-3 1 -63 30 -134 65 -173 84 -316 171 -498 302 l-38 27 48 63 c117 157 295
439 333 527 8 17 17 32 21 32 5 0 8 4 8 9 0 5 24 60 54 122 30 63 54 116 54
119 -1 3 5 16 12 30 8 14 15 27 15 30 1 3 8 21 17 40 8 20 28 72 43 115 15 44
32 86 38 93 5 6 7 12 4 12 -3 0 8 39 24 88 16 48 29 89 29 92 1 3 5 23 11 45
6 22 12 47 14 55 2 8 11 44 20 80 9 36 18 74 20 85 1 11 5 31 9 45 9 39 23
121 30 180 2 19 7 51 10 70 15 90 29 270 30 397 1 51 3 93 6 93 3 0 4 28 3 62
-1 35 -2 63 -3 63 -1 0 -3 43 -6 95 -5 128 -17 271 -30 355 -3 22 -7 49 -9 60
-2 17 -17 114 -29 180 -1 11 -5 27 -8 35 -3 8 -20 76 -37 150 -18 74 -42 163
-53 198 -11 34 -21 68 -22 75 -1 6 -4 17 -7 22 -4 6 -14 35 -24 65 -18 57 -65
179 -92 240 -46 105 -177 367 -212 424 -23 37 -41 71 -41 76 0 6 -4 10 -10 10
-5 0 -10 5 -10 11 0 12 -146 233 -194 293 -71 90 -72 84 10 143 40 29 75 53
79 53 3 0 13 7 22 15 32 33 462 270 481 265 1 0 19 7 40 16 49 22 278 103 322
115 19 5 42 12 50 14 8 2 35 9 60 16 99 24 199 44 275 55 22 3 51 8 65 10 31
6 79 11 190 19 46 4 86 7 87 9 4 3 267 -2 363 -8z m-12790 -1329 c0 -4 9 -17
20 -29 11 -12 26 -34 32 -50 7 -15 16 -28 20 -28 5 0 8 -4 8 -9 0 -6 14 -31
31 -56 46 -68 219 -416 219 -440 0 -4 7 -23 16 -43 9 -21 20 -46 24 -57 13
-31 66 -202 85 -275 17 -63 21 -81 29 -128 3 -12 7 -30 10 -40 3 -9 7 -35 10
-57 4 -22 8 -51 11 -65 2 -14 7 -42 10 -62 3 -21 7 -53 10 -70 26 -174 21
-623 -9 -778 -2 -14 -7 -43 -10 -65 -7 -49 -13 -84 -28 -155 -6 -30 -12 -59
-14 -65 -1 -5 -7 -30 -14 -55 -7 -25 -13 -49 -14 -55 -5 -23 -50 -165 -73
-230 -40 -111 -72 -184 -143 -330 -57 -118 -186 -338 -201 -343 -5 -2 -9 -9
-9 -16 0 -7 -11 -26 -25 -41 l-24 -29 -20 23 c-11 13 -35 47 -52 75 -18 28
-47 74 -66 103 -18 28 -33 56 -33 62 0 6 -5 11 -11 11 -5 0 -8 4 -4 9 3 5 1
12 -4 15 -14 9 -102 185 -148 296 -47 112 -55 132 -59 145 -1 6 -16 48 -32 95
-16 47 -29 87 -30 90 -1 7 -7 28 -20 70 -6 19 -16 62 -22 95 -16 77 -16 77
-23 95 -5 14 -24 130 -33 195 -2 17 -6 46 -9 65 -25 169 -22 644 5 716 6 14 6
23 2 20 -5 -3 0 41 10 97 9 56 20 116 23 132 3 17 12 57 20 90 9 33 18 73 21
89 7 36 82 271 99 311 7 17 29 71 50 120 44 107 125 269 137 273 4 2 6 7 3 12
-3 5 1 15 9 22 7 8 24 34 37 58 32 58 73 123 116 183 33 44 36 46 49 30 7 -10
14 -22 14 -26z m5083 -65 c35 -53 72 -113 83 -132 10 -19 24 -38 29 -42 6 -4
6 -8 1 -8 -5 0 -2 -8 6 -17 8 -10 26 -40 39 -68 13 -27 26 -52 29 -55 3 -3 18
-34 34 -70 15 -36 37 -83 47 -106 10 -22 19 -43 19 -46 0 -3 8 -23 17 -44 9
-22 18 -43 19 -49 1 -5 18 -56 38 -112 19 -57 33 -103 31 -103 -3 0 0 -12 6
-27 20 -49 57 -222 79 -363 46 -293 44 -679 -5 -950 -3 -14 -7 -43 -11 -65 -3
-22 -9 -56 -14 -75 -5 -19 -12 -53 -16 -75 -3 -22 -9 -44 -12 -50 -4 -5 -8
-19 -10 -30 -1 -11 -12 -51 -24 -90 -12 -38 -22 -72 -23 -75 -7 -30 -53 -153
-97 -260 -42 -99 -159 -329 -198 -386 -16 -25 -30 -49 -30 -55 0 -5 -4 -9 -10
-9 -5 0 -10 -5 -10 -11 0 -12 -60 -103 -72 -107 -4 -2 -8 -11 -8 -20 0 -13 -5
-11 -24 8 -13 14 -22 28 -20 32 2 3 1 8 -4 10 -18 8 -142 213 -214 355 -46 90
-133 289 -144 328 -1 6 -18 55 -37 110 -19 55 -34 102 -34 105 -1 3 -6 25 -13
50 -7 25 -14 54 -16 65 -2 11 -8 40 -15 65 -6 25 -13 56 -15 70 -2 14 -9 48
-14 75 -27 148 -41 307 -43 500 0 124 9 328 18 370 3 11 7 45 10 75 4 45 20
138 40 240 2 8 13 53 25 100 12 47 23 92 25 101 2 8 10 32 19 52 8 21 15 38
14 40 -3 5 36 113 45 125 5 6 7 12 4 12 -2 0 6 26 20 58 13 31 27 66 30 77 11
35 161 325 193 371 16 25 30 49 30 55 0 5 5 9 10 9 6 0 10 4 10 10 0 15 84
137 92 133 4 -2 35 -47 71 -101z m5041 1 c16 -27 44 -71 62 -99 117 -181 300
-601 330 -758 2 -12 8 -32 13 -46 9 -23 25 -92 36 -148 2 -13 6 -31 9 -40 3
-9 8 -39 12 -67 3 -27 8 -53 10 -56 2 -4 6 -28 9 -55 3 -27 7 -58 9 -69 17
-86 24 -433 12 -595 -12 -157 -20 -213 -62 -430 -8 -42 -44 -184 -51 -200 -3
-8 -7 -19 -8 -25 -16 -69 -108 -315 -131 -351 -9 -13 -13 -24 -10 -24 4 0 -1
-11 -10 -25 -9 -14 -13 -25 -9 -25 3 0 -3 -13 -14 -29 -12 -16 -21 -35 -21
-43 0 -8 -4 -18 -9 -24 -5 -5 -20 -29 -34 -54 -44 -83 -80 -145 -98 -172 -11
-14 -19 -31 -19 -36 0 -6 -4 -12 -9 -14 -5 -1 -27 -31 -49 -65 l-40 -63 -24
33 c-67 90 -175 270 -234 392 -21 44 -43 83 -49 87 -5 4 -7 8 -2 8 4 0 0 15
-10 33 -9 17 -17 34 -18 37 0 3 -8 26 -19 50 -10 25 -22 54 -26 65 -4 11 -12
31 -18 45 -11 26 -55 158 -58 175 -1 6 -9 35 -18 66 -9 31 -19 66 -21 78 -2
13 -6 30 -9 39 -6 18 -9 34 -32 162 -18 94 -22 121 -29 195 -2 28 -7 77 -10
110 -13 128 -7 473 9 585 2 14 7 50 11 80 4 30 9 58 11 62 2 3 7 29 10 56 3
28 14 86 25 129 22 90 26 107 35 148 3 17 9 35 12 40 4 6 8 18 9 27 4 22 41
134 58 173 7 17 16 41 20 55 29 95 241 510 265 518 6 2 8 7 5 12 -3 5 1 14 8
22 7 7 22 28 32 46 11 17 23 32 27 32 4 0 8 7 8 15 0 8 5 15 10 15 6 0 10 8
10 18 0 21 41 -25 84 -95z"/>
</g>
</svg>
