<?xml version="1.0" encoding="utf-8"?>
<!-- Generator: Adobe Illustrator 24.0.0, SVG Export Plug-In . SVG Version: 6.00 Build 0)  -->
<svg version="1.1" xmlns="http://www.w3.org/2000/svg" xmlns:xlink="http://www.w3.org/1999/xlink" x="0px" y="0px"
	 viewBox="0 0 192 192" style="enable-background:new 0 0 192 192;" xml:space="preserve">
<style type="text/css">
	.st0{display:none;}
	.st1{display:inline;fill:url(#SVGID_1_);}
	.st2{display:inline;}
	.st3{fill:#FFFFFF;}
	.st4{display:none;fill:url(#SVGID_2_);}
</style>
<g id="_x31_92" class="st0">
	<linearGradient id="SVGID_1_" gradientUnits="userSpaceOnUse" x1="-17.5692" y1="161.5692" x2="209.5692" y2="30.4308">
		<stop  offset="0.1421" style="stop-color:#4D1B68"/>
		<stop  offset="0.3563" style="stop-color:#631974"/>
		<stop  offset="0.8002" style="stop-color:#9C1294"/>
		<stop  offset="1" style="stop-color:#B70FA3"/>
	</linearGradient>
	<rect class="st1" width="192" height="192"/>
	<g class="st2">
		<path class="st3" d="M70.5,47.81v96.38L33.02,105.5v36.01H10V45.14l37.48,43.1V47.81H70.5z"/>
		<path class="st3" d="M113.47,160.12H91.92V31.88h21.55V160.12z"/>
		<path class="st3" d="M164.2,71.77c-2.68,1.87-4.93,4.75-6.76,8.63c-1.83,3.88-2.74,8.64-2.74,14.26c0,5.62,0.91,10.37,2.74,14.26
			c1.83,3.88,4.08,6.76,6.76,8.63c2.68,1.87,5.31,2.81,7.9,2.81c2.05,0,3.88-0.24,5.49-0.73c1.61-0.49,3.08-1.45,4.42-2.88v23.42
			c-3.84,1.78-8.16,2.68-12.98,2.68c-6.34,0-12.43-1.74-18.27-5.22c-5.85-3.48-10.62-8.83-14.32-16.06
			c-3.7-7.23-5.56-16.2-5.56-26.9s1.83-19.68,5.49-26.9c3.66-7.23,8.41-12.58,14.26-16.06c5.84-3.48,11.98-5.22,18.4-5.22
			c2.59,0,5.02,0.27,7.29,0.8c2.28,0.54,4.17,1.16,5.69,1.87v23.42c-1.43-1.43-2.92-2.39-4.48-2.88c-1.56-0.49-3.37-0.73-5.42-0.73
			C169.51,68.96,166.88,69.9,164.2,71.77z"/>
	</g>
</g>
<g id="svgapple">
	<linearGradient id="SVGID_2_" gradientUnits="userSpaceOnUse" x1="-17.5692" y1="161.5692" x2="209.5692" y2="30.4308">
		<stop  offset="0.1421" style="stop-color:#4D1B68"/>
		<stop  offset="0.3563" style="stop-color:#631974"/>
		<stop  offset="0.8002" style="stop-color:#9C1294"/>
		<stop  offset="1" style="stop-color:#B70FA3"/>
	</linearGradient>
	<rect class="st4" width="192" height="192"/>
	<g>
		<path d="M70.5,47.81v96.38L33.02,105.5v36.01H10V45.14l37.48,43.1V47.81H70.5z"/>
		<path d="M113.47,160.12H91.92V31.88h21.55V160.12z"/>
		<path d="M164.2,71.77c-2.68,1.87-4.93,4.75-6.76,8.63c-1.83,3.88-2.74,8.64-2.74,14.26c0,5.62,0.91,10.37,2.74,14.26
			c1.83,3.88,4.08,6.76,6.76,8.63c2.68,1.87,5.31,2.81,7.9,2.81c2.05,0,3.88-0.24,5.49-0.73c1.61-0.49,3.08-1.45,4.42-2.88v23.42
			c-3.84,1.78-8.16,2.68-12.98,2.68c-6.34,0-12.43-1.74-18.27-5.22c-5.85-3.48-10.62-8.83-14.32-16.06
			c-3.7-7.23-5.56-16.2-5.56-26.9s1.83-19.68,5.49-26.9c3.66-7.23,8.41-12.58,14.26-16.06c5.84-3.48,11.98-5.22,18.4-5.22
			c2.59,0,5.02,0.27,7.29,0.8c2.28,0.54,4.17,1.16,5.69,1.87v23.42c-1.43-1.43-2.92-2.39-4.48-2.88c-1.56-0.49-3.37-0.73-5.42-0.73
			C169.51,68.96,166.88,69.9,164.2,71.77z"/>
	</g>
</g>
</svg>
