<?xml version="1.0" encoding="UTF-8"?>
<svg fill="white" xmlns="http://www.w3.org/2000/svg" viewBox="0 0 64 64" width="512" height="512"><g id="Outline" ><path d="M25,26a1,1,0,0,0,0-2,1,1,0,0,1-1-1,1,1,0,0,0-2,0A3,3,0,0,0,25,26Z"/><path d="M21,12a4,4,0,0,0-4,4,1,1,0,0,0,2,0,2,2,0,0,1,2-2,1,1,0,0,0,0-2Z"/><path d="M15,19a1,1,0,0,0-1,1,2,2,0,0,0,2,2,1,1,0,0,0,0-2A1,1,0,0,0,15,19Z"/><path d="M16,26a5.847,5.847,0,0,0,2.45-.536,6.987,6.987,0,0,0,10.225,3.487,1,1,0,1,0-1.052-1.7,4.985,4.985,0,0,1-7.558-3.487,1,1,0,0,0-1.607-.634A3.954,3.954,0,0,1,16,24a4,4,0,0,1-1.576-7.675,1,1,0,1,0-.789-1.838A6,6,0,0,0,16,26Z"/><path d="M16.079,12.571A6,6,0,0,1,21,10a6.131,6.131,0,0,1,.849.067c.01,0,.02,0,.031,0a5.921,5.921,0,0,1,2.807,1.217A4.968,4.968,0,0,0,23,15a1,1,0,0,0,2,0,3,3,0,0,1,3-3,1,1,0,0,0,0-2,4.941,4.941,0,0,0-1.46.243A7.937,7.937,0,0,0,23.5,8.407,9.529,9.529,0,0,1,31.5,4a9.41,9.41,0,0,1,7.207,3.343,8.018,8.018,0,0,0-3.019,1.684A5.46,5.46,0,0,0,32.5,8a1,1,0,0,0,0,2A3.5,3.5,0,0,1,36,13.5a1,1,0,0,0,2,0,5.46,5.46,0,0,0-.91-3.022A5.983,5.983,0,0,1,40.5,9.023a.17.17,0,0,0,.022,0C40.681,9.013,40.839,9,41,9a6.006,6.006,0,0,1,6,6c0,.053,0,.1-.008.156l-.008.14a1,1,0,0,0,.668.99,4.992,4.992,0,0,1,.6,9.174c-.008,0-.012.011-.02.015a4.991,4.991,0,0,1-5.765-.94,1,1,0,0,0-1.414,1.414,6.911,6.911,0,0,0,6.922,1.758c.009.1.028.2.028.293a4,4,0,0,1-3.955,4c-.036,0-.155-.017-.191-.018a1,1,0,0,0-.977.67,1.981,1.981,0,0,1-3.754,0,.989.989,0,0,0-.977-.67A.6.6,0,0,0,38,32a3.978,3.978,0,0,1-3.873-3.1,5,5,0,0,0-2.15-8.8A3.505,3.505,0,0,0,28.5,17a1,1,0,0,0,0,2A1.5,1.5,0,0,1,30,20.5V21a1,1,0,0,0,1,1,3,3,0,0,1,1.5,5.6,1.054,1.054,0,0,0-.431,1.15,5.98,5.98,0,0,0,5.467,5.235,3.977,3.977,0,0,0,6.922,0A6.008,6.008,0,0,0,50,28a5.572,5.572,0,0,0-.127-1.174,6.991,6.991,0,0,0-.879-12.148A8.01,8.01,0,0,0,41,7h-.026A11.411,11.411,0,0,0,31.5,2,11.541,11.541,0,0,0,21.405,8.013C21.266,8,21.131,8,21,8a8,8,0,0,0-6.562,3.429,1,1,0,0,0,1.641,1.142Z"/><path d="M28.172,15.586a1,1,0,0,0,1.414,0,2.047,2.047,0,0,1,2.828,0,1,1,0,1,0,1.414-1.414,4.093,4.093,0,0,0-5.656,0A1,1,0,0,0,28.172,15.586Z"/><path d="M44,20a1,1,0,0,0-1,1,3,3,0,0,0,3,3,1,1,0,0,0,0-2,1,1,0,0,1-1-1A1,1,0,0,0,44,20Z"/><path d="M39,16a2,2,0,0,1-2,2,1,1,0,0,0,0,2,4,4,0,0,0,4-4,1,1,0,0,0-2,0Z"/><path d="M41,11a1,1,0,0,0,0,2,2,2,0,0,1,2,2,1,1,0,0,0,2,0A4,4,0,0,0,41,11Z"/><path d="M37,28a3,3,0,0,0,3,3,1,1,0,0,0,0-2,1,1,0,0,1-1-1,1,1,0,0,0-2,0Z"/><circle cx="29" cy="7" r="1"/><circle cx="31" cy="25" r="1"/><circle cx="39" cy="22" r="1"/><circle cx="23" cy="19" r="1"/><path d="M16.445,27.168l-3,2A1,1,0,0,0,13,30v3a1,1,0,0,0,2,0V30.535l2.555-1.7a1,1,0,1,0-1.11-1.664Z"/><path d="M28,31a1,1,0,0,0-1,1v2a1,1,0,0,0,2,0V32A1,1,0,0,0,28,31Z"/><path d="M51.105,28.553a1,1,0,0,0,.448,1.342L53,30.618V34a1,1,0,0,0,2,0V30a1,1,0,0,0-.553-.895l-2-1A1,1,0,0,0,51.105,28.553Z"/><path d="M27,57a1,1,0,0,0-1,1v3a1,1,0,0,0,2,0V58A1,1,0,0,0,27,57Z"/><path d="M37,57a1,1,0,0,0-1,1v3a1,1,0,0,0,2,0V58A1,1,0,0,0,37,57Z"/><path d="M9,57a1,1,0,0,0-1,1v3a1,1,0,0,0,2,0V58A1,1,0,0,0,9,57Z"/><path d="M19,57a1,1,0,0,0-1,1v3a1,1,0,0,0,2,0V58A1,1,0,0,0,19,57Z"/><path d="M44.917,51.016A1,1,0,0,0,43.6,50.5,5.988,5.988,0,0,0,41,52.689,6,6,0,0,0,36,50h-.026A4.948,4.948,0,0,0,37,47V45.975A4.983,4.983,0,0,0,34,37H26a1,1,0,0,0,0,2h8a3,3,0,0,1,3,3,2.859,2.859,0,0,1-.351,1.378A4,4,0,0,0,33,41H31a4,4,0,0,0-3.646,2.372A2.85,2.85,0,0,1,27,42a1,1,0,0,0-2,0,5,5,0,0,0,2,3.975V47a4.948,4.948,0,0,0,1.026,3H28a6,6,0,0,0-5,2.69V45A9,9,0,0,0,5,45v3a1,1,0,0,0,2,0V45a7,7,0,0,1,14,0v5.812A5.958,5.958,0,0,0,18,50h-.026A4.948,4.948,0,0,0,19,47V45a4,4,0,0,0-4-4H13a4,4,0,0,0-4,4v2a4.948,4.948,0,0,0,1.026,3H10a6.006,6.006,0,0,0-6,6v5a1,1,0,0,0,2,0V56a4,4,0,0,1,4-4h1v1a1,1,0,0,0,.317.73l2.139,2a1,1,0,0,0,.683.27h.035a1,1,0,0,0,.7-.317l1.861-2A1,1,0,0,0,17,53V52h1a4,4,0,0,1,4,4v5a1,1,0,0,0,2,0V56a4,4,0,0,1,4-4h1v1a1,1,0,0,0,.317.73l2.139,2a1,1,0,0,0,.683.27h.035a1,1,0,0,0,.7-.317l1.861-2A1,1,0,0,0,35,53V52h1a4,4,0,0,1,4,4v5a1,1,0,0,0,2,0V56a4,4,0,0,1,2.4-3.668A1,1,0,0,0,44.917,51.016ZM11,45a2,2,0,0,1,2-2h2a2,2,0,0,1,2,2v2a3,3,0,0,1-6,0Zm3.09,8.585L13,52.566V51.9a5,5,0,0,0,2,0v.707ZM29,45a2,2,0,0,1,2-2h2a2,2,0,0,1,2,2v2a3,3,0,0,1-6,0Zm3.09,8.585L31,52.566V51.9a5,5,0,0,0,2,0v.707Z"/><path d="M54,50h-.026A4.948,4.948,0,0,0,55,47V45.975A4.983,4.983,0,0,0,52,37H48a4.983,4.983,0,0,0-3,8.975V47a4.977,4.977,0,0,0,2,3.974V53a1,1,0,0,0,.317.73l2.139,2a1,1,0,0,0,.683.27h.035a1,1,0,0,0,.7-.317l1.861-2A1,1,0,0,0,53,53V52h1a4,4,0,0,1,4,4v5a1,1,0,0,0,2,0V56A6.006,6.006,0,0,0,54,50Zm-7-3V45a2,2,0,0,1,2-2h2a2,2,0,0,1,2,2v2a3,3,0,0,1-6,0Zm-1.645-3.629A2.847,2.847,0,0,1,45,42a3,3,0,0,1,3-3h4a3,3,0,0,1,3,3,2.839,2.839,0,0,1-.354,1.373A4,4,0,0,0,51,41H49A4,4,0,0,0,45.355,43.371ZM50.09,53.585,49,52.566V51.9a5,5,0,0,0,2,0v.707Z"/><path d="M45,57a1,1,0,0,0-1,1v3a1,1,0,0,0,2,0V58A1,1,0,0,0,45,57Z"/><path d="M55,57a1,1,0,0,0-1,1v3a1,1,0,0,0,2,0V58A1,1,0,0,0,55,57Z"/></g></svg>
